<svg width="25" height="20" viewBox="0 0 25 20" fill="none" xmlns="http://www.w3.org/2000/svg">
<path d="M0 0.9375C0 0.417969 0.468382 0 1.05058 0H3.04229C4.00532 0 4.85891 0.5 5.25726 1.25H23.2484C24.3996 1.25 25.2401 2.22656 24.938 3.21875L23.1433 9.16797C22.7712 10.3945 21.5237 11.25 20.101 11.25H7.47222L7.7086 12.3633C7.8049 12.8047 8.23826 13.125 8.74166 13.125H21.3617C21.9439 13.125 22.4123 13.543 22.4123 14.0625C22.4123 14.582 21.9439 15 21.3617 15H8.74166C7.22708 15 5.927 14.0391 5.64684 12.7148L3.38811 2.12891C3.35746 1.98047 3.21301 1.875 3.04229 1.875H1.05058C0.468382 1.875 0 1.45703 0 0.9375ZM5.60307 18.125C5.60307 17.8788 5.65742 17.635 5.76301 17.4075C5.8686 17.18 6.02337 16.9733 6.21848 16.7992C6.41359 16.6251 6.64522 16.487 6.90015 16.3927C7.15507 16.2985 7.42829 16.25 7.70422 16.25C7.98015 16.25 8.25337 16.2985 8.5083 16.3927C8.76322 16.487 8.99485 16.6251 9.18996 16.7992C9.38507 16.9733 9.53984 17.18 9.64543 17.4075C9.75102 17.635 9.80537 17.8788 9.80537 18.125C9.80537 18.3712 9.75102 18.615 9.64543 18.8425C9.53984 19.07 9.38507 19.2767 9.18996 19.4508C8.99485 19.6249 8.76322 19.763 8.5083 19.8573C8.25337 19.9515 7.98015 20 7.70422 20C7.42829 20 7.15507 19.9515 6.90015 19.8573C6.64522 19.763 6.41359 19.6249 6.21848 19.4508C6.02337 19.2767 5.8686 19.07 5.76301 18.8425C5.65742 18.615 5.60307 18.3712 5.60307 18.125ZM20.3111 16.25C20.8684 16.25 21.4028 16.4475 21.7969 16.7992C22.1909 17.1508 22.4123 17.6277 22.4123 18.125C22.4123 18.6223 22.1909 19.0992 21.7969 19.4508C21.4028 19.8025 20.8684 20 20.3111 20C19.7539 20 19.2194 19.8025 18.8254 19.4508C18.4313 19.0992 18.21 18.6223 18.21 18.125C18.21 17.6277 18.4313 17.1508 18.8254 16.7992C19.2194 16.4475 19.7539 16.25 20.3111 16.25Z" fill="black"/>
</svg>
