<svg width="22" height="20" viewBox="0 0 22 20" fill="none" xmlns="http://www.w3.org/2000/svg">
<path d="M10.4844 2.60936L10.9613 3.12499L11.477 2.61022C12.9164 1.20729 14.9102 0.568779 16.8695 0.894912C19.8301 1.38819 22 3.94999 22 6.95351V7.20272C22 8.98593 21.2609 10.6918 19.9547 11.9078L12.1902 19.1566C11.868 19.4574 11.4426 19.625 11 19.625C10.5574 19.625 10.132 19.4574 9.80977 19.1566L2.04488 11.9078C0.740352 10.6918 0 8.98593 0 7.20272V6.95351C0 3.94999 2.17078 1.38819 5.13047 0.894912C7.05117 0.568779 9.08359 1.20729 10.4844 2.60936C10.4844 2.60979 10.4457 2.60936 10.4844 2.60936ZM10.9613 6.04257L9.02773 4.03163C8.09531 3.13702 6.77187 2.71249 5.46992 2.92905C3.5041 3.2569 2.0625 4.95976 2.0625 6.95351V7.20272C2.0625 8.41444 2.56566 9.5746 3.45211 10.3996L11 17.4465L18.5496 10.3996C19.4348 9.5746 19.9375 8.41444 19.9375 7.20272V6.95351C19.9375 4.95976 18.4937 3.2569 16.5301 2.92905C15.2281 2.71249 13.9047 3.13702 12.9723 4.03163L10.9613 6.04257Z" fill="black"/>
</svg>
