<svg width="19" height="16" viewBox="0 0 19 16" fill="none" xmlns="http://www.w3.org/2000/svg">
<path d="M6.11907 0.769421C5.83334 0.188196 5.08005 -0.121165 4.36016 0.0444527L1.09468 0.79442C0.449004 0.944413 0 1.43814 0 2.00062C0 9.73153 7.44381 16 16.6243 16C17.2922 16 17.8785 15.6219 18.0566 15.0782L18.9472 12.3283C19.1439 11.7221 18.7765 11.0877 18.0863 10.8471L14.524 9.59716C13.9191 9.38467 13.2178 9.53154 12.8059 9.95964L11.3067 11.5002C8.69434 10.4596 6.5792 8.67845 5.34351 6.47855L7.17293 5.21922C7.6813 4.86924 7.85571 4.28177 7.60337 3.77241L6.11907 0.772546V0.769421Z" fill="white"/>
</svg>
