<svg width="10" height="10" viewBox="0 0 10 10" fill="none" xmlns="http://www.w3.org/2000/svg">
<path d="M9.80683 1.17219C10.1011 0.868641 10.0542 0.417785 9.70007 0.165573C9.34594 -0.0866382 8.81995 -0.0464629 8.52571 0.257084L5 3.88402L1.47429 0.257084C1.18005 -0.0464629 0.65406 -0.0866382 0.299927 0.165573C-0.054206 0.417785 -0.101076 0.868641 0.193166 1.17219L3.91417 5L0.193166 8.82781C-0.101076 9.13136 -0.054206 9.58221 0.299927 9.83443C0.65406 10.0866 1.18005 10.0465 1.47429 9.74292L5 6.11598L8.52571 9.74292C8.81995 10.0465 9.34594 10.0866 9.70007 9.83443C10.0542 9.58221 10.1011 9.13136 9.80683 8.82781L6.08583 5L9.80683 1.17219Z" fill="black"/>
</svg>
