<svg width="22" height="16" viewBox="0 0 22 16" fill="none" xmlns="http://www.w3.org/2000/svg">
<path d="M2.0625 0C0.923828 0 0 0.895833 0 2C0 2.62917 0.305078 3.22083 0.825 3.6L10.175 10.4C10.6648 10.7542 11.3352 10.7542 11.825 10.4L21.175 3.6C21.6949 3.22083 22 2.62917 22 2C22 0.895833 21.0762 0 19.9375 0H2.0625ZM0 4.66667V13.3333C0 14.8042 1.2332 16 2.75 16H19.25C20.7668 16 22 14.8042 22 13.3333V4.66667L12.65 11.4667C11.6703 12.1792 10.3297 12.1792 9.35 11.4667L0 4.66667Z" fill="white"/>
</svg>
