<svg width="19" height="20" viewBox="0 0 19 20" fill="none" xmlns="http://www.w3.org/2000/svg">
<path d="M15.4383 8.09717C15.4383 9.884 14.8853 11.5346 13.9538 12.8737L18.6521 17.806C19.116 18.2926 19.116 19.0829 18.6521 19.5695C18.1882 20.0561 17.4348 20.0561 16.9709 19.5695L12.2727 14.6372C10.996 15.6182 9.42253 16.1943 7.71913 16.1943C3.45505 16.1943 0 12.5701 0 8.09717C0 3.62426 3.45505 0 7.71913 0C11.9832 0 15.4383 3.62426 15.4383 8.09717ZM7.71913 13.7029C8.42091 13.7029 9.11583 13.5579 9.76419 13.2762C10.4126 12.9945 11.0017 12.5816 11.4979 12.061C11.9941 11.5405 12.3878 10.9225 12.6563 10.2424C12.9249 9.56228 13.0631 8.83333 13.0631 8.09717C13.0631 7.36102 12.9249 6.63207 12.6563 5.95195C12.3878 5.27183 11.9941 4.65386 11.4979 4.13332C11.0017 3.61278 10.4126 3.19986 9.76419 2.91815C9.11583 2.63644 8.42091 2.49144 7.71913 2.49144C7.01734 2.49144 6.32243 2.63644 5.67406 2.91815C5.0257 3.19986 4.43658 3.61278 3.94034 4.13332C3.4441 4.65386 3.05047 5.27183 2.7819 5.95195C2.51334 6.63207 2.37512 7.36102 2.37512 8.09717C2.37512 8.83333 2.51334 9.56228 2.7819 10.2424C3.05047 10.9225 3.4441 11.5405 3.94034 12.061C4.43658 12.5816 5.0257 12.9945 5.67406 13.2762C6.32243 13.5579 7.01734 13.7029 7.71913 13.7029Z" fill="black"/>
</svg>
